<svg xmlns="http://www.w3.org/2000/svg" viewBox="0 0 195 82" role="img" aria-label="Vector silhouette of arched gate and main building">
  <path fill="currentColor" d="M164 0h3v1h-3zM169 0h1v1h-1zM172 0h11v1h-11zM149 1h20v1h-20zM170 1h4v1h-4zM175 1h6v1h-6zM182 1h4v1h-4zM148 2h2v1h-2zM151 2h21v1h-21zM175 2h2v1h-2zM178 2h12v1h-12zM148 3h3v1h-3zM178 3h1v1h-1zM185 3h9v1h-9zM150 4h2v1h-2zM177 4h2v1h-2zM188 4h7v1h-7zM152 5h2v1h-2zM171 5h1v1h-1zM176 5h2v1h-2zM192 5h3v1h-3zM154 6h24v1h-24zM191 6h3v1h-3zM156 7h1v1h-1zM172 7h9v1h-9zM187 7h4v1h-4zM156 8h1v1h-1zM172 8h1v1h-1zM176 8h2v1h-2zM181 8h7v1h-7zM156 9h1v1h-1zM172 9h1v1h-1zM176 9h2v1h-2zM183 9h1v1h-1zM186 9h1v1h-1zM156 10h1v1h-1zM172 10h1v1h-1zM176 10h2v1h-2zM183 10h1v1h-1zM186 10h1v1h-1zM156 11h1v1h-1zM172 11h1v1h-1zM176 11h2v1h-2zM183 11h1v1h-1zM186 11h1v1h-1zM156 12h28v1h-28zM186 12h1v1h-1zM153 13h8v1h-8zM176 13h1v1h-1zM178 13h9v1h-9zM151 14h2v1h-2zM176 14h1v1h-1zM178 14h4v1h-4zM186 14h4v1h-4zM151 15h2v1h-2zM156 15h16v1h-16zM176 15h1v1h-1zM178 15h2v1h-2zM181 15h1v1h-1zM190 15h2v1h-2zM152 16h1v1h-1zM156 16h16v1h-16zM176 16h1v1h-1zM178 16h1v1h-1zM181 16h1v1h-1zM183 16h3v1h-3zM191 16h2v1h-2zM151 17h2v1h-2zM156 17h16v1h-16zM176 17h1v1h-1zM178 17h1v1h-1zM181 17h8v1h-8zM191 17h1v1h-1zM152 18h1v1h-1zM156 18h16v1h-16zM176 18h1v1h-1zM178 18h1v1h-1zM181 18h1v1h-1zM183 18h9v1h-9zM151 19h2v1h-2zM156 19h16v1h-16zM176 19h1v1h-1zM178 19h1v1h-1zM181 19h1v1h-1zM183 19h9v1h-9zM151 20h2v1h-2zM156 20h16v1h-16zM176 20h1v1h-1zM178 20h1v1h-1zM181 20h1v1h-1zM183 20h9v1h-9zM71 21h4v1h-4zM151 21h2v1h-2zM156 21h16v1h-16zM176 21h1v1h-1zM178 21h1v1h-1zM181 21h1v1h-1zM183 21h9v1h-9zM64 22h7v1h-7zM72 22h1v1h-1zM74 22h2v1h-2zM77 22h6v1h-6zM151 22h2v1h-2zM156 22h16v1h-16zM176 22h1v1h-1zM178 22h1v1h-1zM181 22h1v1h-1zM183 22h9v1h-9zM61 23h5v1h-5zM68 23h1v1h-1zM70 23h1v1h-1zM75 23h1v1h-1zM77 23h1v1h-1zM80 23h1v1h-1zM82 23h4v1h-4zM151 23h2v1h-2zM156 23h16v1h-16zM176 23h1v1h-1zM178 23h1v1h-1zM181 23h1v1h-1zM183 23h9v1h-9zM58 24h3v1h-3zM62 24h1v1h-1zM65 24h1v1h-1zM68 24h1v1h-1zM75 24h1v1h-1zM80 24h1v1h-1zM82 24h1v1h-1zM85 24h4v1h-4zM151 24h2v1h-2zM156 24h16v1h-16zM176 24h1v1h-1zM178 24h1v1h-1zM181 24h1v1h-1zM183 24h9v1h-9zM55 25h3v1h-3zM60 25h1v1h-1zM68 25h1v1h-1zM71 25h1v1h-1zM73 25h1v1h-1zM75 25h1v1h-1zM80 25h1v1h-1zM82 25h1v1h-1zM87 25h4v1h-4zM151 25h2v1h-2zM156 25h16v1h-16zM176 25h1v1h-1zM178 25h1v1h-1zM181 25h1v1h-1zM183 25h9v1h-9zM53 26h3v1h-3zM57 26h1v1h-1zM60 26h1v1h-1zM63 26h1v1h-1zM66 26h1v1h-1zM73 26h1v1h-1zM80 26h1v1h-1zM82 26h1v1h-1zM89 26h1v1h-1zM91 26h2v1h-2zM151 26h2v1h-2zM156 26h16v1h-16zM176 26h1v1h-1zM178 26h1v1h-1zM181 26h1v1h-1zM183 26h9v1h-9zM51 27h4v1h-4zM61 27h1v1h-1zM63 27h1v1h-1zM66 27h1v1h-1zM68 27h13v1h-13zM82 27h1v1h-1zM87 27h1v1h-1zM89 27h1v1h-1zM93 27h2v1h-2zM151 27h2v1h-2zM156 27h16v1h-16zM176 27h1v1h-1zM178 27h1v1h-1zM181 27h1v1h-1zM183 27h9v1h-9zM49 28h4v1h-4zM55 28h1v1h-1zM58 28h1v1h-1zM61 28h1v1h-1zM64 28h4v1h-4zM69 28h1v1h-1zM71 28h1v1h-1zM76 28h1v1h-1zM78 28h1v1h-1zM80 28h1v1h-1zM82 28h4v1h-4zM87 28h1v1h-1zM89 28h1v1h-1zM93 28h1v1h-1zM95 28h2v1h-2zM151 28h2v1h-2zM156 28h16v1h-16zM176 28h1v1h-1zM178 28h1v1h-1zM181 28h1v1h-1zM183 28h9v1h-9zM48 29h3v1h-3zM52 29h1v1h-1zM58 29h1v1h-1zM61 29h4v1h-4zM76 29h1v1h-1zM78 29h1v1h-1zM80 29h1v1h-1zM85 29h1v1h-1zM87 29h3v1h-3zM93 29h1v1h-1zM96 29h2v1h-2zM151 29h2v1h-2zM156 29h16v1h-16zM176 29h1v1h-1zM178 29h1v1h-1zM181 29h1v1h-1zM183 29h9v1h-9zM43 30h7v1h-7zM56 30h1v1h-1zM59 30h2v1h-2zM62 30h1v1h-1zM64 30h1v1h-1zM67 30h1v1h-1zM74 30h1v1h-1zM76 30h1v1h-1zM80 30h1v1h-1zM85 30h1v1h-1zM87 30h5v1h-5zM93 30h1v1h-1zM96 30h1v1h-1zM98 30h2v1h-2zM151 30h2v1h-2zM156 30h16v1h-16zM176 30h1v1h-1zM178 30h1v1h-1zM181 30h1v1h-1zM183 30h9v1h-9zM40 31h8v1h-8zM50 31h1v1h-1zM53 31h1v1h-1zM56 31h4v1h-4zM62 31h1v1h-1zM67 31h1v1h-1zM72 31h1v1h-1zM76 31h1v1h-1zM78 31h1v1h-1zM80 31h1v1h-1zM85 31h1v1h-1zM87 31h1v1h-1zM89 31h1v1h-1zM91 31h3v1h-3zM98 31h3v1h-3zM151 31h2v1h-2zM156 31h16v1h-16zM176 31h1v1h-1zM178 31h1v1h-1zM181 31h1v1h-1zM183 31h9v1h-9zM38 32h4v1h-4zM43 32h4v1h-4zM54 32h1v1h-1zM56 32h2v1h-2zM62 32h1v1h-1zM65 32h1v1h-1zM70 32h14v1h-14zM85 32h1v1h-1zM87 32h1v1h-1zM89 32h1v1h-1zM93 32h3v1h-3zM100 32h2v1h-2zM151 32h2v1h-2zM156 32h16v1h-16zM176 32h1v1h-1zM178 32h1v1h-1zM181 32h1v1h-1zM183 32h9v1h-9zM35 33h4v1h-4zM41 33h4v1h-4zM51 33h1v1h-1zM54 33h1v1h-1zM57 33h1v1h-1zM60 33h1v1h-1zM63 33h1v1h-1zM65 33h6v1h-6zM78 33h10v1h-10zM89 33h1v1h-1zM91 33h1v1h-1zM95 33h3v1h-3zM102 33h1v1h-1zM151 33h2v1h-2zM156 33h16v1h-16zM176 33h1v1h-1zM178 33h1v1h-1zM181 33h1v1h-1zM183 33h9v1h-9zM34 34h3v1h-3zM41 34h4v1h-4zM48 34h1v1h-1zM52 34h1v1h-1zM60 34h1v1h-1zM63 34h4v1h-4zM70 34h1v1h-1zM83 34h7v1h-7zM91 34h1v1h-1zM97 34h2v1h-2zM103 34h2v1h-2zM151 34h2v1h-2zM156 34h16v1h-16zM176 34h1v1h-1zM178 34h1v1h-1zM181 34h1v1h-1zM183 34h9v1h-9zM32 35h4v1h-4zM39 35h4v1h-4zM45 35h1v1h-1zM49 35h1v1h-1zM51 35h2v1h-2zM55 35h1v1h-1zM58 35h1v1h-1zM61 35h3v1h-3zM70 35h1v1h-1zM86 35h8v1h-8zM97 35h3v1h-3zM103 35h3v1h-3zM151 35h2v1h-2zM156 35h16v1h-16zM176 35h1v1h-1zM178 35h1v1h-1zM181 35h1v1h-1zM183 35h9v1h-9zM30 36h3v1h-3zM36 36h1v1h-1zM39 36h4v1h-4zM45 36h1v1h-1zM49 36h2v1h-2zM53 36h1v1h-1zM58 36h5v1h-5zM69 36h12v1h-12zM88 36h6v1h-6zM97 36h1v1h-1zM99 36h3v1h-3zM103 36h1v1h-1zM105 36h2v1h-2zM151 36h2v1h-2zM156 36h16v1h-16zM176 36h1v1h-1zM178 36h1v1h-1zM181 36h1v1h-1zM183 36h9v1h-9zM29 37h3v1h-3zM33 37h1v1h-1zM36 37h5v1h-5zM46 37h1v1h-1zM48 37h3v1h-3zM53 37h1v1h-1zM56 37h3v1h-3zM62 37h1v1h-1zM65 37h20v1h-20zM91 37h6v1h-6zM99 37h1v1h-1zM101 37h2v1h-2zM105 37h3v1h-3zM151 37h2v1h-2zM156 37h16v1h-16zM176 37h1v1h-1zM178 37h1v1h-1zM181 37h1v1h-1zM183 37h9v1h-9zM27 38h4v1h-4zM36 38h4v1h-4zM43 38h1v1h-1zM47 38h1v1h-1zM56 38h2v1h-2zM62 38h4v1h-4zM79 38h3v1h-3zM84 38h4v1h-4zM92 38h6v1h-6zM99 38h1v1h-1zM101 38h1v1h-1zM103 38h2v1h-2zM106 38h2v1h-2zM151 38h2v1h-2zM156 38h16v1h-16zM176 38h1v1h-1zM178 38h1v1h-1zM181 38h1v1h-1zM183 38h9v1h-9zM26 39h3v1h-3zM31 39h1v1h-1zM34 39h6v1h-6zM44 39h1v1h-1zM46 39h2v1h-2zM51 39h1v1h-1zM54 39h2v1h-2zM60 39h3v1h-3zM83 39h4v1h-4zM88 39h2v1h-2zM94 39h2v1h-2zM97 39h3v1h-3zM103 39h2v1h-2zM106 39h1v1h-1zM108 39h1v1h-1zM151 39h2v1h-2zM156 39h16v1h-16zM176 39h1v1h-1zM178 39h1v1h-1zM181 39h1v1h-1zM183 39h9v1h-9zM25 40h3v1h-3zM33 40h5v1h-5zM40 40h1v1h-1zM45 40h1v1h-1zM48 40h1v1h-1zM52 40h3v1h-3zM58 40h3v1h-3zM69 40h7v1h-7zM86 40h1v1h-1zM90 40h2v1h-2zM95 40h3v1h-3zM99 40h2v1h-2zM104 40h3v1h-3zM108 40h2v1h-2zM151 40h2v1h-2zM156 40h16v1h-16zM176 40h1v1h-1zM178 40h1v1h-1zM181 40h1v1h-1zM183 40h9v1h-9zM24 41h2v1h-2zM28 41h1v1h-1zM32 41h6v1h-6zM41 41h1v1h-1zM44 41h2v1h-2zM49 41h1v1h-1zM52 41h2v1h-2zM57 41h1v1h-1zM64 41h17v1h-17zM87 41h2v1h-2zM92 41h2v1h-2zM97 41h4v1h-4zM104 41h1v1h-1zM106 41h2v1h-2zM109 41h2v1h-2zM151 41h2v1h-2zM156 41h16v1h-16zM176 41h1v1h-1zM178 41h1v1h-1zM181 41h1v1h-1zM183 41h9v1h-9zM23 42h3v1h-3zM29 42h1v1h-1zM31 42h3v1h-3zM36 42h2v1h-2zM42 42h2v1h-2zM46 42h1v1h-1zM50 42h2v1h-2zM55 42h2v1h-2zM61 42h3v1h-3zM70 42h15v1h-15zM90 42h1v1h-1zM93 42h2v1h-2zM98 42h2v1h-2zM101 42h3v1h-3zM106 42h2v1h-2zM109 42h1v1h-1zM111 42h1v1h-1zM151 42h2v1h-2zM156 42h16v1h-16zM176 42h1v1h-1zM178 42h1v1h-1zM181 42h1v1h-1zM183 42h9v1h-9zM21 43h3v1h-3zM26 43h1v1h-1zM29 43h7v1h-7zM38 43h1v1h-1zM42 43h1v1h-1zM50 43h1v1h-1zM54 43h1v1h-1zM59 43h2v1h-2zM75 43h8v1h-8zM84 43h3v1h-3zM91 43h2v1h-2zM95 43h2v1h-2zM100 43h2v1h-2zM103 43h1v1h-1zM105 43h1v1h-1zM107 43h2v1h-2zM111 43h2v1h-2zM151 43h2v1h-2zM156 43h16v1h-16zM176 43h1v1h-1zM178 43h1v1h-1zM181 43h1v1h-1zM183 43h9v1h-9zM20 44h3v1h-3zM28 44h8v1h-8zM39 44h1v1h-1zM41 44h1v1h-1zM43 44h1v1h-1zM47 44h1v1h-1zM49 44h1v1h-1zM52 44h2v1h-2zM57 44h2v1h-2zM78 44h7v1h-7zM87 44h2v1h-2zM93 44h1v1h-1zM96 44h2v1h-2zM101 44h2v1h-2zM104 44h2v1h-2zM109 44h1v1h-1zM111 44h2v1h-2zM151 44h2v1h-2zM156 44h16v1h-16zM176 44h1v1h-1zM178 44h1v1h-1zM181 44h1v1h-1zM183 44h9v1h-9zM19 45h3v1h-3zM23 45h1v1h-1zM27 45h3v1h-3zM31 45h1v1h-1zM33 45h1v1h-1zM35 45h1v1h-1zM40 45h1v1h-1zM44 45h1v1h-1zM48 45h1v1h-1zM51 45h2v1h-2zM55 45h2v1h-2zM80 45h2v1h-2zM83 45h4v1h-4zM89 45h2v1h-2zM94 45h2v1h-2zM98 45h1v1h-1zM100 45h7v1h-7zM109 45h2v1h-2zM112 45h2v1h-2zM151 45h2v1h-2zM156 45h16v1h-16zM176 45h1v1h-1zM178 45h1v1h-1zM181 45h1v1h-1zM183 45h9v1h-9zM18 46h3v1h-3zM24 46h1v1h-1zM26 46h3v1h-3zM30 46h1v1h-1zM33 46h1v1h-1zM36 46h1v1h-1zM39 46h3v1h-3zM45 46h1v1h-1zM47 46h1v1h-1zM50 46h1v1h-1zM53 46h2v1h-2zM82 46h3v1h-3zM86 46h3v1h-3zM90 46h2v1h-2zM96 46h1v1h-1zM99 46h2v1h-2zM103 46h4v1h-4zM108 46h1v1h-1zM110 46h2v1h-2zM114 46h1v1h-1zM151 46h2v1h-2zM156 46h16v1h-16zM176 46h1v1h-1zM178 46h1v1h-1zM181 46h1v1h-1zM183 46h9v1h-9zM18 47h2v1h-2zM25 47h8v1h-8zM37 47h3v1h-3zM46 47h2v1h-2zM49 47h1v1h-1zM52 47h2v1h-2zM84 47h1v1h-1zM88 47h2v1h-2zM92 47h2v1h-2zM97 47h5v1h-5zM104 47h4v1h-4zM109 47h1v1h-1zM111 47h1v1h-1zM113 47h2v1h-2zM151 47h2v1h-2zM156 47h16v1h-16zM176 47h1v1h-1zM178 47h1v1h-1zM181 47h1v1h-1zM183 47h9v1h-9zM17 48h2v1h-2zM24 48h3v1h-3zM29 48h1v1h-1zM31 48h3v1h-3zM38 48h1v1h-1zM42 48h1v1h-1zM45 48h1v1h-1zM48 48h4v1h-4zM85 48h2v1h-2zM88 48h4v1h-4zM94 48h1v1h-1zM98 48h1v1h-1zM101 48h1v1h-1zM105 48h2v1h-2zM108 48h1v1h-1zM111 48h2v1h-2zM115 48h1v1h-1zM151 48h2v1h-2zM156 48h16v1h-16zM176 48h1v1h-1zM178 48h1v1h-1zM181 48h1v1h-1zM183 48h9v1h-9zM16 49h2v1h-2zM21 49h1v1h-1zM24 49h3v1h-3zM28 49h1v1h-1zM30 49h2v1h-2zM34 49h1v1h-1zM37 49h1v1h-1zM39 49h1v1h-1zM43 49h3v1h-3zM47 49h4v1h-4zM86 49h2v1h-2zM91 49h2v1h-2zM95 49h2v1h-2zM99 49h1v1h-1zM102 49h1v1h-1zM106 49h1v1h-1zM108 49h2v1h-2zM112 49h5v1h-5zM151 49h2v1h-2zM156 49h16v1h-16zM176 49h1v1h-1zM178 49h1v1h-1zM181 49h1v1h-1zM183 49h9v1h-9zM15 50h3v1h-3zM22 50h3v1h-3zM27 50h4v1h-4zM35 50h2v1h-2zM40 50h1v1h-1zM43 50h2v1h-2zM46 50h3v1h-3zM88 50h1v1h-1zM91 50h3v1h-3zM96 50h2v1h-2zM100 50h1v1h-1zM103 50h1v1h-1zM106 50h2v1h-2zM109 50h3v1h-3zM113 50h2v1h-2zM116 50h2v1h-2zM151 50h2v1h-2zM156 50h16v1h-16zM176 50h1v1h-1zM178 50h1v1h-1zM181 50h1v1h-1zM183 50h9v1h-9zM14 51h3v1h-3zM18 51h1v1h-1zM21 51h3v1h-3zM27 51h1v1h-1zM29 51h2v1h-2zM36 51h1v1h-1zM40 51h1v1h-1zM43 51h1v1h-1zM45 51h3v1h-3zM89 51h1v1h-1zM93 51h2v1h-2zM97 51h2v1h-2zM101 51h1v1h-1zM104 51h1v1h-1zM106 51h3v1h-3zM110 51h2v1h-2zM113 51h2v1h-2zM116 51h2v1h-2zM151 51h2v1h-2zM156 51h16v1h-16zM176 51h1v1h-1zM178 51h1v1h-1zM181 51h1v1h-1zM183 51h9v1h-9zM14 52h2v1h-2zM19 52h6v1h-6zM26 52h1v1h-1zM29 52h1v1h-1zM31 52h1v1h-1zM35 52h1v1h-1zM37 52h1v1h-1zM42 52h1v1h-1zM45 52h2v1h-2zM90 52h1v1h-1zM93 52h4v1h-4zM98 52h2v1h-2zM102 52h1v1h-1zM104 52h2v1h-2zM108 52h5v1h-5zM114 52h2v1h-2zM117 52h2v1h-2zM151 52h2v1h-2zM156 52h16v1h-16zM176 52h1v1h-1zM178 52h1v1h-1zM181 52h1v1h-1zM183 52h9v1h-9zM13 53h4v1h-4zM20 53h3v1h-3zM25 53h2v1h-2zM28 53h1v1h-1zM32 53h1v1h-1zM35 53h1v1h-1zM38 53h1v1h-1zM42 53h1v1h-1zM44 53h2v1h-2zM91 53h3v1h-3zM95 53h1v1h-1zM97 53h1v1h-1zM99 53h2v1h-2zM103 53h4v1h-4zM109 53h10v1h-10zM151 53h2v1h-2zM156 53h16v1h-16zM176 53h1v1h-1zM178 53h1v1h-1zM181 53h1v1h-1zM183 53h9v1h-9zM12 54h3v1h-3zM17 54h1v1h-1zM19 54h3v1h-3zM25 54h4v1h-4zM33 54h2v1h-2zM39 54h1v1h-1zM41 54h1v1h-1zM43 54h2v1h-2zM92 54h1v1h-1zM96 54h2v1h-2zM100 54h1v1h-1zM104 54h1v1h-1zM106 54h2v1h-2zM110 54h5v1h-5zM116 54h1v1h-1zM118 54h2v1h-2zM151 54h2v1h-2zM156 54h16v1h-16zM176 54h1v1h-1zM178 54h1v1h-1zM181 54h1v1h-1zM183 54h9v1h-9zM11 55h3v1h-3zM18 55h5v1h-5zM25 55h1v1h-1zM27 55h1v1h-1zM29 55h1v1h-1zM34 55h2v1h-2zM40 55h4v1h-4zM92 55h2v1h-2zM97 55h2v1h-2zM101 55h1v1h-1zM104 55h1v1h-1zM107 55h1v1h-1zM111 55h1v1h-1zM113 55h1v1h-1zM117 55h1v1h-1zM119 55h1v1h-1zM151 55h2v1h-2zM156 55h16v1h-16zM176 55h1v1h-1zM178 55h1v1h-1zM181 55h1v1h-1zM183 55h9v1h-9zM11 56h4v1h-4zM18 56h3v1h-3zM23 56h2v1h-2zM26 56h2v1h-2zM30 56h1v1h-1zM33 56h1v1h-1zM36 56h1v1h-1zM40 56h3v1h-3zM93 56h1v1h-1zM98 56h2v1h-2zM102 56h1v1h-1zM105 56h1v1h-1zM108 56h1v1h-1zM111 56h4v1h-4zM117 56h1v1h-1zM119 56h2v1h-2zM151 56h2v1h-2zM156 56h16v1h-16zM176 56h1v1h-1zM178 56h1v1h-1zM181 56h1v1h-1zM183 56h9v1h-9zM10 57h3v1h-3zM15 57h1v1h-1zM17 57h3v1h-3zM24 57h1v1h-1zM26 57h1v1h-1zM31 57h2v1h-2zM37 57h1v1h-1zM39 57h4v1h-4zM94 57h1v1h-1zM100 57h1v1h-1zM103 57h1v1h-1zM106 57h1v1h-1zM108 57h3v1h-3zM112 57h4v1h-4zM118 57h1v1h-1zM120 57h1v1h-1zM151 57h2v1h-2zM156 57h16v1h-16zM176 57h1v1h-1zM178 57h1v1h-1zM181 57h1v1h-1zM183 57h9v1h-9zM10 58h2v1h-2zM16 58h3v1h-3zM20 58h1v1h-1zM23 58h1v1h-1zM25 58h2v1h-2zM32 58h1v1h-1zM38 58h4v1h-4zM95 58h1v1h-1zM99 58h1v1h-1zM101 58h1v1h-1zM103 58h2v1h-2zM107 58h3v1h-3zM113 58h1v1h-1zM115 58h1v1h-1zM117 58h5v1h-5zM151 58h2v1h-2zM156 58h16v1h-16zM176 58h1v1h-1zM178 58h1v1h-1zM181 58h1v1h-1zM183 58h9v1h-9zM9 59h3v1h-3zM16 59h3v1h-3zM21 59h3v1h-3zM25 59h1v1h-1zM27 59h2v1h-2zM31 59h1v1h-1zM34 59h1v1h-1zM38 59h3v1h-3zM95 59h3v1h-3zM100 59h1v1h-1zM102 59h1v1h-1zM104 59h1v1h-1zM107 59h1v1h-1zM110 59h1v1h-1zM113 59h4v1h-4zM118 59h2v1h-2zM121 59h1v1h-1zM151 59h2v1h-2zM156 59h16v1h-16zM176 59h1v1h-1zM178 59h1v1h-1zM181 59h1v1h-1zM183 59h9v1h-9zM8 60h3v1h-3zM12 60h2v1h-2zM15 60h3v1h-3zM22 60h1v1h-1zM24 60h2v1h-2zM29 60h1v1h-1zM31 60h1v1h-1zM35 60h1v1h-1zM37 60h3v1h-3zM96 60h1v1h-1zM101 60h1v1h-1zM103 60h1v1h-1zM105 60h1v1h-1zM108 60h1v1h-1zM110 60h2v1h-2zM114 60h1v1h-1zM116 60h2v1h-2zM119 60h1v1h-1zM121 60h2v1h-2zM151 60h2v1h-2zM156 60h16v1h-16zM176 60h1v1h-1zM178 60h1v1h-1zM181 60h1v1h-1zM183 60h9v1h-9zM8 61h2v1h-2zM14 61h5v1h-5zM22 61h1v1h-1zM24 61h1v1h-1zM30 61h2v1h-2zM36 61h4v1h-4zM97 61h1v1h-1zM101 61h1v1h-1zM103 61h1v1h-1zM105 61h1v1h-1zM108 61h1v1h-1zM111 61h1v1h-1zM114 61h2v1h-2zM117 61h2v1h-2zM120 61h3v1h-3zM151 61h2v1h-2zM156 61h16v1h-16zM176 61h1v1h-1zM178 61h1v1h-1zM181 61h1v1h-1zM183 61h9v1h-9zM7 62h3v1h-3zM14 62h1v1h-1zM16 62h1v1h-1zM19 62h6v1h-6zM30 62h1v1h-1zM32 62h1v1h-1zM36 62h3v1h-3zM97 62h2v1h-2zM102 62h1v1h-1zM104 62h1v1h-1zM106 62h1v1h-1zM109 62h1v1h-1zM112 62h1v1h-1zM115 62h9v1h-9zM151 62h2v1h-2zM156 62h16v1h-16zM176 62h1v1h-1zM178 62h1v1h-1zM181 62h1v1h-1zM183 62h9v1h-9zM7 63h4v1h-4zM13 63h3v1h-3zM20 63h2v1h-2zM23 63h1v1h-1zM25 63h2v1h-2zM33 63h1v1h-1zM36 63h2v1h-2zM98 63h1v1h-1zM103 63h1v1h-1zM105 63h1v1h-1zM107 63h1v1h-1zM112 63h1v1h-1zM115 63h4v1h-4zM120 63h2v1h-2zM123 63h1v1h-1zM151 63h2v1h-2zM156 63h16v1h-16zM176 63h1v1h-1zM178 63h1v1h-1zM181 63h1v1h-1zM183 63h9v1h-9zM6 64h3v1h-3zM12 64h5v1h-5zM20 64h1v1h-1zM23 64h1v1h-1zM27 64h1v1h-1zM29 64h1v1h-1zM34 64h4v1h-4zM99 64h5v1h-5zM107 64h1v1h-1zM110 64h4v1h-4zM116 64h6v1h-6zM123 64h2v1h-2zM151 64h2v1h-2zM156 64h16v1h-16zM176 64h1v1h-1zM178 64h1v1h-1zM181 64h1v1h-1zM183 64h9v1h-9zM6 65h2v1h-2zM12 65h3v1h-3zM17 65h1v1h-1zM19 65h2v1h-2zM22 65h1v1h-1zM28 65h2v1h-2zM35 65h2v1h-2zM99 65h1v1h-1zM104 65h1v1h-1zM106 65h1v1h-1zM108 65h1v1h-1zM111 65h1v1h-1zM113 65h1v1h-1zM117 65h8v1h-8zM151 65h2v1h-2zM156 65h16v1h-16zM176 65h1v1h-1zM178 65h1v1h-1zM181 65h1v1h-1zM183 65h9v1h-9zM5 66h3v1h-3zM12 66h1v1h-1zM14 66h1v1h-1zM19 66h4v1h-4zM28 66h3v1h-3zM34 66h3v1h-3zM99 66h2v1h-2zM108 66h1v1h-1zM111 66h1v1h-1zM114 66h1v1h-1zM117 66h8v1h-8zM151 66h2v1h-2zM156 66h16v1h-16zM176 66h1v1h-1zM178 66h1v1h-1zM181 66h1v1h-1zM183 66h9v1h-9zM5 67h5v1h-5zM11 67h4v1h-4zM18 67h2v1h-2zM21 67h2v1h-2zM24 67h1v1h-1zM28 67h1v1h-1zM31 67h2v1h-2zM34 67h2v1h-2zM100 67h1v1h-1zM105 67h1v1h-1zM107 67h3v1h-3zM112 67h1v1h-1zM114 67h1v1h-1zM118 67h1v1h-1zM120 67h6v1h-6zM151 67h2v1h-2zM156 67h16v1h-16zM176 67h1v1h-1zM178 67h1v1h-1zM181 67h1v1h-1zM183 67h9v1h-9zM4 68h3v1h-3zM10 68h6v1h-6zM18 68h2v1h-2zM21 68h1v1h-1zM25 68h3v1h-3zM33 68h3v1h-3zM100 68h2v1h-2zM108 68h2v1h-2zM112 68h1v1h-1zM115 68h1v1h-1zM118 68h1v1h-1zM120 68h1v1h-1zM123 68h3v1h-3zM151 68h2v1h-2zM156 68h16v1h-16zM176 68h1v1h-1zM178 68h1v1h-1zM181 68h1v1h-1zM183 68h9v1h-9zM4 69h2v1h-2zM10 69h1v1h-1zM12 69h1v1h-1zM16 69h4v1h-4zM21 69h1v1h-1zM27 69h1v1h-1zM33 69h2v1h-2zM101 69h1v1h-1zM106 69h1v1h-1zM108 69h1v1h-1zM110 69h1v1h-1zM115 69h1v1h-1zM117 69h9v1h-9zM151 69h2v1h-2zM156 69h16v1h-16zM176 69h1v1h-1zM178 69h1v1h-1zM181 69h1v1h-1zM183 69h9v1h-9zM4 70h3v1h-3zM10 70h1v1h-1zM12 70h1v1h-1zM17 70h5v1h-5zM27 70h1v1h-1zM29 70h1v1h-1zM33 70h2v1h-2zM101 70h2v1h-2zM109 70h2v1h-2zM113 70h4v1h-4zM119 70h8v1h-8zM151 70h2v1h-2zM156 70h16v1h-16zM176 70h1v1h-1zM178 70h1v1h-1zM181 70h1v1h-1zM183 70h9v1h-9zM3 71h3v1h-3zM7 71h6v1h-6zM17 71h4v1h-4zM22 71h1v1h-1zM26 71h1v1h-1zM30 71h2v1h-2zM33 71h1v1h-1zM102 71h1v1h-1zM105 71h3v1h-3zM109 71h3v1h-3zM114 71h1v1h-1zM116 71h1v1h-1zM119 71h3v1h-3zM124 71h3v1h-3zM151 71h2v1h-2zM156 71h16v1h-16zM176 71h1v1h-1zM178 71h1v1h-1zM181 71h1v1h-1zM183 71h9v1h-9zM3 72h2v1h-2zM9 72h1v1h-1zM11 72h1v1h-1zM13 72h2v1h-2zM16 72h3v1h-3zM20 72h1v1h-1zM24 72h1v1h-1zM26 72h1v1h-1zM32 72h2v1h-2zM102 72h2v1h-2zM107 72h1v1h-1zM110 72h2v1h-2zM114 72h1v1h-1zM116 72h1v1h-1zM120 72h7v1h-7zM151 72h2v1h-2zM156 72h16v1h-16zM176 72h1v1h-1zM178 72h1v1h-1zM181 72h1v1h-1zM183 72h9v1h-9zM2 73h3v1h-3zM9 73h1v1h-1zM11 73h1v1h-1zM15 73h1v1h-1zM17 73h1v1h-1zM19 73h1v1h-1zM26 73h1v1h-1zM32 73h1v1h-1zM103 73h1v1h-1zM108 73h1v1h-1zM110 73h3v1h-3zM114 73h1v1h-1zM117 73h1v1h-1zM120 73h8v1h-8zM151 73h2v1h-2zM156 73h16v1h-16zM176 73h1v1h-1zM178 73h1v1h-1zM181 73h1v1h-1zM183 73h9v1h-9zM2 74h4v1h-4zM8 74h3v1h-3zM15 74h3v1h-3zM19 74h1v1h-1zM25 74h1v1h-1zM27 74h2v1h-2zM31 74h2v1h-2zM103 74h1v1h-1zM108 74h1v1h-1zM112 74h1v1h-1zM115 74h1v1h-1zM117 74h1v1h-1zM119 74h9v1h-9zM151 74h2v1h-2zM156 74h16v1h-16zM176 74h1v1h-1zM178 74h1v1h-1zM181 74h1v1h-1zM183 74h9v1h-9zM2 75h2v1h-2zM6 75h6v1h-6zM15 75h6v1h-6zM25 75h1v1h-1zM29 75h3v1h-3zM103 75h2v1h-2zM109 75h1v1h-1zM111 75h2v1h-2zM115 75h1v1h-1zM117 75h2v1h-2zM121 75h8v1h-8zM151 75h2v1h-2zM156 75h16v1h-16zM176 75h1v1h-1zM178 75h1v1h-1zM181 75h1v1h-1zM183 75h9v1h-9zM1 76h3v1h-3zM7 76h2v1h-2zM10 76h1v1h-1zM13 76h3v1h-3zM17 76h2v1h-2zM21 76h2v1h-2zM31 76h1v1h-1zM104 76h1v1h-1zM109 76h1v1h-1zM112 76h2v1h-2zM116 76h3v1h-3zM121 76h8v1h-8zM151 76h2v1h-2zM156 76h17v1h-17zM176 76h1v1h-1zM178 76h1v1h-1zM181 76h1v1h-1zM183 76h9v1h-9zM1 77h2v1h-2zM7 77h1v1h-1zM9 77h1v1h-1zM14 77h1v1h-1zM16 77h1v1h-1zM18 77h1v1h-1zM24 77h2v1h-2zM30 77h2v1h-2zM104 77h1v1h-1zM112 77h2v1h-2zM116 77h1v1h-1zM118 77h1v1h-1zM121 77h6v1h-6zM128 77h1v1h-1zM151 77h2v1h-2zM156 77h16v1h-16zM176 77h1v1h-1zM178 77h2v1h-2zM181 77h1v1h-1zM183 77h9v1h-9zM1 78h3v1h-3zM7 78h1v1h-1zM9 78h1v1h-1zM14 78h1v1h-1zM16 78h1v1h-1zM18 78h1v1h-1zM24 78h1v1h-1zM26 78h2v1h-2zM30 78h1v1h-1zM105 78h1v1h-1zM110 78h1v1h-1zM112 78h3v1h-3zM116 78h1v1h-1zM119 78h1v1h-1zM122 78h3v1h-3zM126 78h3v1h-3zM151 78h2v1h-2zM156 78h17v1h-17zM176 78h1v1h-1zM178 78h1v1h-1zM181 78h1v1h-1zM183 78h9v1h-9zM0 79h3v1h-3zM5 79h5v1h-5zM14 79h1v1h-1zM16 79h1v1h-1zM18 79h1v1h-1zM28 79h3v1h-3zM105 79h1v1h-1zM110 79h1v1h-1zM113 79h2v1h-2zM119 79h1v1h-1zM122 79h3v1h-3zM126 79h4v1h-4zM151 79h2v1h-2zM156 79h16v1h-16zM176 79h1v1h-1zM178 79h1v1h-1zM181 79h1v1h-1zM183 79h9v1h-9zM0 80h3v1h-3zM6 80h3v1h-3zM11 80h9v1h-9zM30 80h1v1h-1zM105 80h1v1h-1zM113 80h2v1h-2zM117 80h1v1h-1zM119 80h1v1h-1zM122 80h8v1h-8zM151 80h2v1h-2zM156 80h17v1h-17zM176 80h1v1h-1zM178 80h1v1h-1zM181 80h1v1h-1zM183 80h9v1h-9zM0 81h2v1h-2zM6 81h1v1h-1zM8 81h1v1h-1zM13 81h1v1h-1zM15 81h1v1h-1zM17 81h1v1h-1zM21 81h3v1h-3zM29 81h1v1h-1zM105 81h1v1h-1zM110 81h2v1h-2zM114 81h2v1h-2zM117 81h9v1h-9zM127 81h3v1h-3zM152 81h1v1h-1zM156 81h17v1h-17zM176 81h1v1h-1zM178 81h1v1h-1zM181 81h1v1h-1zM183 81h9v1h-9z"/>
</svg>
